<svg xmlns="http://www.w3.org/2000/svg" viewBox="0 0 1024 1024" xml:space="preserve">
  <path fill="#FFF" d="M752.5 1023H631.8c-49.5 0-89.8-40.3-89.8-89.8V782.6H90.8C41.3 782.6 1 742.3 1 692.8v-602C1 41.3 41.3 1 90.8 1h661.7c72.2 0 140.2 28.1 191.2 79.2 51.1 51.1 79.2 119 79.2 191.2v481.1c0 72.2-28.1 140.2-79.2 191.2-51 51.2-118.9 79.3-191.2 79.3zM601.8 752.7v180.5c0 16.5 13.4 29.9 29.9 29.9h120.8c116.1 0 210.6-94.5 210.6-210.6V441.1c-6 7.5-12.5 14.7-19.4 21.6-51.1 51.1-119 79.2-191.2 79.2H631.8c-16.5 0-29.9 13.4-29.9 29.9l-.1 180.9zM90.8 60.9c-16.5 0-29.9 13.4-29.9 29.9v602c0 16.5 13.4 29.9 29.9 29.9h451.1V571.9c0-49.5 40.3-89.8 89.8-89.8h120.7c116.1 0 210.6-94.5 210.6-210.6S868.5 60.9 752.4 60.9H90.8z"/>
  <path fill="#FFF" d="M752.5 401.2c-71.5 0-129.8-58.2-129.8-129.8S681 141.7 752.5 141.7s129.8 58.2 129.8 129.8-58.2 129.7-129.8 129.7zm0-199.6c-38.5 0-69.9 31.3-69.9 69.9s31.3 69.9 69.9 69.9 69.9-31.3 69.9-69.9-31.4-69.9-69.9-69.9zM389.9 240.5H210.4c-16.5 0-29.9-13.4-29.9-29.9s13.4-29.9 29.9-29.9h179.5c16.5 0 29.9 13.4 29.9 29.9s-13.4 29.9-29.9 29.9zM330.1 360.1H210.4c-16.5 0-29.9-13.4-29.9-29.9s13.4-29.9 29.9-29.9h119.7c16.5 0 29.9 13.4 29.9 29.9s-13.4 29.9-29.9 29.9z"/>
</svg>
